<?xml version="1.0" encoding="utf-8"?>
<!-- Generator: Adobe Illustrator 16.0.0, SVG Export Plug-In . SVG Version: 6.00 Build 0)  -->
<!DOCTYPE svg PUBLIC "-//W3C//DTD SVG 1.1//EN" "http://www.w3.org/Graphics/SVG/1.1/DTD/svg11.dtd">
<svg version="1.1" id="Layer_1" xmlns="http://www.w3.org/2000/svg" xmlns:xlink="http://www.w3.org/1999/xlink" x="0px" y="0px"
	 width="800px" height="800px" viewBox="0 0 800 800" style="enable-background:new 0 0 800 800;" xml:space="preserve">
<style type="text/css">
<![CDATA[
	.st0{opacity:0.2;fill:#FFFFFF;}
	.st1{display:none;fill:#454C53;}
	.st2{fill:#FFFFFF;}
	.st3{fill:none;}
	.st4{display:inline;}
	.st5{fill:#064B62;}
	.st6{fill:#075567;}
	.st7{display:none;}
	.st8{opacity:0.51;fill:none;stroke:#FFFFFF;stroke-width:2.0741;stroke-miterlimit:10;}
	.st9{opacity:0.39;fill:#FFFFFF;}
	.st10{opacity:0.27;fill:#75B5AD;}
	.st11{fill:#454C53;}
]]>
</style>
<g>
	<g>
		<ellipse class="st10" cx="407.7" cy="681.1" rx="284.7" ry="19"/>
	</g>
	<g>
		<ellipse class="st8" cx="405.6" cy="336.8" rx="255.1" ry="253.6"/>
		<path class="st9" d="M385.1,95.5C258,104.9,155.2,222.5,165.1,343c5.3-59.4,29.6-117.5,68.8-162.2
			C273.1,136.1,327.2,108.3,385.1,95.5z"/>
		<ellipse class="st0" cx="405.6" cy="336.8" rx="255.1" ry="253.6"/>
	</g>
	<g>
		<path class="st5" d="M196.6,624.1c2.3-3.2,5-6.1,7.6-9.1c10.2-11.8,17.5-26,21.3-41.1l362,0.4c1,2.5,2.1,4.9,3.1,7.4
			c1.5,3.6,3,7.2,4.7,10.7c5,10.5,11.7,20.3,19.5,28.9L196.6,624.1z"/>
		<path class="st6" d="M612.3,685.2H201.5c-6.1,0-11-4.9-11-11v-47.1c0-6,4.9-11,11-11h410.9c6,0,11,5,11,11v47.1
			C623.3,680.3,618.4,685.2,612.3,685.2z"/>
		<path class="st5" d="M570.3,532.5c-2.4,13.2,2.6,21.8,10.9,32.4L234,564.3c1.1,0.1,2-1,2.5-1.9c5.5-9.8,11.1-16.2,9.1-27.3
			C245.6,535.1,410.1,556.5,570.3,532.5z"/>
		<path class="st6" d="M589.5,580.7H224.3c-5.3,0-9.6-4.3-9.6-9.6v-0.7c0-5.3,4.3-9.6,9.6-9.6h365.1c5.3,0,9.6,4.3,9.6,9.6v0.7
			C599.1,576.4,594.8,580.7,589.5,580.7z"/>
	</g>
</g>
<g class="st7">
	<g class="st4">
		<g>
			<rect x="410.8" y="417.4" class="st11" width="33.8" height="90.6"/>
			<rect x="426" y="445" class="st2" width="3" height="13"/>
			<rect x="432" y="445" class="st2" width="3" height="13"/>
			<rect x="438" y="445" class="st2" width="3" height="13"/>
			<rect x="419" y="430" class="st2" width="4" height="12"/>
			<rect x="426" y="430" class="st2" width="3" height="12"/>
			<rect x="432" y="430" class="st2" width="3" height="12"/>
			<rect x="419" y="460" class="st2" width="4" height="14"/>
			<rect x="432" y="460" class="st2" width="3" height="14"/>
			<rect x="438" y="460" class="st2" width="3" height="14"/>
			<rect x="419" y="476" class="st2" width="4" height="14"/>
			<rect x="426" y="476" class="st2" width="3" height="14"/>
			<rect x="438" y="476" class="st2" width="3" height="14"/>
		</g>
		<g>
			<rect x="367.8" y="352.1" class="st11" width="37.7" height="155.9"/>
			<rect x="372" y="372" class="st2" width="5" height="9"/>
			<rect x="380" y="372" class="st2" width="5" height="9"/>
			<rect x="380" y="386" class="st2" width="5" height="6"/>
			<rect x="372" y="397" class="st2" width="5" height="8"/>
			<rect x="380" y="397" class="st2" width="5" height="8"/>
			<rect x="372" y="408" class="st2" width="5" height="9"/>
			<rect x="380" y="408" class="st2" width="5" height="9"/>
			<rect x="380" y="419" class="st2" width="5" height="8"/>
			<rect x="372" y="430" class="st2" width="5" height="10"/>
			<rect x="380" y="430" class="st2" width="5" height="10"/>
			<rect x="372" y="444" class="st2" width="5" height="8"/>
			<rect x="380" y="444" class="st2" width="5" height="8"/>
			<rect x="372" y="456" class="st2" width="5" height="8"/>
			<rect x="380" y="456" class="st2" width="5" height="8"/>
			<rect x="380" y="466" class="st2" width="5" height="10"/>
			<rect x="372" y="479" class="st2" width="5" height="10"/>
			<rect x="380" y="479" class="st2" width="5" height="10"/>
			<rect x="380" y="492" class="st2" width="5" height="7"/>
			<rect x="397" y="372" class="st2" width="4" height="9"/>
			<rect x="387" y="386" class="st2" width="6" height="6"/>
			<rect x="397" y="386" class="st2" width="4" height="6"/>
			<rect x="397" y="397" class="st2" width="4" height="8"/>
			<rect x="387" y="408" class="st2" width="6" height="9"/>
			<rect x="397" y="408" class="st2" width="4" height="9"/>
			<rect x="387" y="419" class="st2" width="6" height="8"/>
			<rect x="387" y="430" class="st2" width="6" height="10"/>
			<rect x="397" y="430" class="st2" width="4" height="10"/>
			<rect x="397" y="444" class="st2" width="4" height="8"/>
			<rect x="387" y="456" class="st2" width="6" height="8"/>
			<rect x="397" y="456" class="st2" width="4" height="8"/>
			<rect x="387" y="466" class="st2" width="6" height="10"/>
			<rect x="397" y="466" class="st2" width="4" height="10"/>
			<rect x="397" y="479" class="st2" width="4" height="10"/>
			<rect x="387" y="492" class="st2" width="6" height="7"/>
			<rect x="397" y="492" class="st2" width="4" height="7"/>
		</g>
		<g>
			<rect x="490" y="428" class="st11" width="28" height="80"/>
			<rect x="492" y="433" class="st2" width="23" height="3"/>
			<rect x="492" y="440" class="st2" width="23" height="4"/>
			<rect x="492" y="449" class="st2" width="23" height="2"/>
			<rect x="492" y="455" class="st2" width="23" height="4"/>
			<rect x="492" y="463" class="st2" width="23" height="3"/>
			<rect x="492" y="472" class="st2" width="23" height="2"/>
			<rect x="492" y="478" class="st2" width="23" height="2"/>
			<rect x="492" y="487" class="st2" width="23" height="2"/>
		</g>
		<g>
			<path class="st3" d="M290.2,474.7l3.5-3.5l1.6,1.6l21.3-20.8c-0.2-0.5-0.4-1.1-0.4-1.1H286v2h-4.7c0.1,1,0.2,2.3,0.4,3.4l4.8-1.2
				l1.8,6.7l-4.8,1.3c0.4,1,0.8,2,1.3,3l4.3-2.4l3.5,6l-4.3,2.5C288.8,473,289.5,473.9,290.2,474.7z"/>
			<path class="st3" d="M298.6,423.2l-2,2l21.2,21.3c0.4-0.3,1.2-0.5,1.2-0.6V416h-2v-4.8c-1,0.1-2.2,0.2-3.3,0.4l1.2,4.4l-6.7,1.8
				l-1.2-4.4c-1,0.4-2.1,0.8-3,1.2l2.3,3.9l-6,3.4L298,418c-0.9,0.6-1.8,1.3-2.6,2L298.6,423.2z"/>
			<path class="st3" d="M281.8,443.3c-0.2,1.1-0.4,1.7-0.5,3.7h4.7v2h30.4c0.1,0,0.3-0.9,0.5-1.2l-21.5-21.4l-1.8,1.7l-3.2-3.2
				c-0.7,0.8-1.4,1.7-2,2.6l3.9,2.3l-3.5,6l-4-2.3c-0.5,1-0.9,2-1.3,3l4.4,1.2l-1.8,6.8L281.8,443.3z"/>
			<path class="st3" d="M317,488.6V484h2v-30.1c0-0.1-1.2-0.5-1.7-1l-21.1,21l2.3,2.2l-3.5,3.5c0.8,0.7,1.7,1.4,2.6,2l2.5-4.2l6,3.4
				l-2.5,4.3c1,0.5,2,0.9,3,1.3l1.3-4.7l6.7,1.8l-1.4,4.7C314.5,488.3,316,488.5,317,488.6z"/>
			<path class="st3" d="M322.1,453.2c-0.5,0.3-0.1,0.6-2.1,0.7V484h4v4.5c1-0.1,2.1-0.3,3.2-0.4l-1.2-4.7l6.7-1.8l1.3,4.6
				c1-0.4,2.1-0.8,3-1.3l-2.4-4.2l6-3.4l2.4,4.1c0.9-0.6,1.8-1.3,2.6-2l-3.4-3.4l1.5-1.8L322.1,453.2z"/>
			<path class="st3" d="M324,411.3v4.7h-4v29.9c2,0.1,1.2,0.2,1.5,0.3l21.9-21.5l-1.5-1.6l3.2-3.1c-0.8-0.7-1.7-1.4-2.6-2l-2.2,3.9
				l-6-3.4l2.2-3.8c-1-0.5-2-0.9-3-1.3l-1.2,4.3l-6.7-1.8l1.1-4.3C325.9,411.5,325,411.3,324,411.3z"/>
			<path class="st3" d="M355,451h-30.7c0,0-0.3,1-0.6,1.5l21.3,20.9l2-2.1l3.4,3.3c0.7-0.8,1.4-1.7,2-2.6l-4.2-2.4l3.5-6l4.2,2.4
				c0.5-1,0.9-2,1.3-3l-4.7-1.3l1.8-6.6l4.7,1.1c0.2-1,0.3-2.3,0.4-3.3H355V451z"/>
			<path class="st3" d="M350.1,424.9L347,428l-2.2-2.2l-21.5,21.5c0.4,0.4,0.6,1.6,0.8,1.6H355v-2h4.2c-0.1-2-0.3-2.5-0.4-3.6
				l-4.3,1l-1.8-6.7l4.3-1.2c-0.4-1-0.8-2.1-1.3-3l-3.9,2.2l-3.5-6l3.9-2.2C351.5,426.6,350.8,425.7,350.1,424.9z"/>
			<path class="st11" d="M325,492.2c22-2.6,37.9-20.6,37.9-42.3c0-23.5-19.1-42.7-42.8-42.7c-23.7,0-42.8,19.1-42.8,42.7
				c0,21.7,15.7,39.7,37.7,42.3v6.8h-27v9h26.9h10.8H352v-9h-27V492.2z M308,481.6l-1.3,4.7c-1-0.4-2-0.8-3-1.3l2.5-4.3l-6-3.4
				l-2.5,4.2c-0.9-0.6-1.8-1.3-2.6-2l3.5-3.5l-2.2-2.2l20.9-21c0.5,0.5,1.7,0.8,1.7,1V484h-2v4.6c-1-0.1-2.5-0.3-3.7-0.5l1.3-4.7
				L308,481.6z M289,463.7l-4.3,2.4c-0.5-1-0.9-2-1.3-3l4.8-1.3l-1.8-6.6l-4.8,1.2c-0.2-1.1-0.3-2.4-0.4-3.4h4.7v-2h30.2
				c0,0,0.2,0.6,0.4,1.1l-21.3,21l-1.6-1.7l-3.5,3.4c-0.7-0.8-1.4-1.7-2-2.6l4.3-2.5L289,463.7z M283.6,436.4c0.4-1,0.8-2,1.3-3
				l4,2.3l3.5-6l-3.9-2.3c0.6-0.9,1.3-1.8,2-2.6l3.2,3.2l1.8-1.8l21.5,21.5c-0.2,0.3-0.4,1.2-0.5,1.2H286v-2h-4.7
				c0.1-2,0.3-2.6,0.5-3.7l4.4,1l1.8-6.7L283.6,436.4z M300.3,422l6-3.4l-2.3-3.9c1-0.5,2-0.9,3.1-1.2l1.2,4.4l6.7-1.8l-1.3-4.4
				c1.1-0.2,2.3-0.3,3.3-0.4v4.8h2v29.9c0,0.1-0.8,0.3-1.2,0.6l-21.4-21.3l2.1-2l-3.2-3.2c0.8-0.7,1.7-1.4,2.6-2L300.3,422z
				 M332.4,417.7l1.2-4.3c1,0.4,2.1,0.8,3,1.3l-2.2,3.8l6,3.4l2.2-3.9c0.9,0.6,1.8,1.3,2.6,2l-3.2,3.1l1.6,1.6l-22.2,21.5
				c-0.3-0.2,0.5-0.3-1.5-0.3V416h4v-4.7c1,0.1,1.9,0.2,2.8,0.4l-1.1,4.3L332.4,417.7z M351.7,435.7l3.9-2.2c0.5,1,0.9,2,1.3,3
				l-4.3,1.2l1.8,6.6l4.3-0.8c0.2,1.1,0.3,1.6,0.4,3.6H355v2h-30.9c-0.2,0-0.5-1.2-0.8-1.6l21.5-21.5l2.2,2.1l3.2-3.2
				c0.7,0.8,1.4,1.7,2,2.6l-3.9,2.2L351.7,435.7z M345.5,479.5c-0.8,0.7-1.7,1.4-2.6,2l-2.4-4.1l-6,3.4l2.4,4.2c-1,0.5-2,0.9-3,1.3
				l-1.2-4.6l-6.7,1.8l1.2,4.7c-1,0.2-2.2,0.3-3.2,0.4V484h-4v-30.1c2-0.1,1.6-0.3,2.1-0.7l21.5,21.1l-1.7,1.8L345.5,479.5z
				 M362,453h-2.8c-0.1,1-0.2,2.2-0.4,3.3l-4.7-1.2l-1.8,6.7l4.7,1.3c-0.4,1-0.8,2-1.3,3l-4.2-2.4l-3.5,6l4.2,2.4
				c-0.6,0.9-1.3,1.8-2,2.6l-3.4-3.4l-2,2l-21.3-20.7c0.4-0.6,0.6-1.5,0.6-1.5H355v2h4.2H362v-6.7V453z"/>
		</g>
		<g>
			<rect x="258" y="478" class="st11" width="25" height="30"/>
			<rect x="261" y="483" class="st2" width="3" height="7"/>
			<rect x="272" y="483" class="st2" width="2" height="7"/>
			<rect x="277" y="483" class="st2" width="3" height="7"/>
			<rect x="261" y="492" class="st2" width="3" height="7"/>
			<rect x="266" y="492" class="st2" width="3" height="7"/>
			<rect x="277" y="492" class="st2" width="3" height="7"/>
		</g>
		<g>
			<path class="st11" d="M251,415v-7h-6v7h-19v93h27v-93H251z M235,498h-7v-7h7V498z M235,488h-7v-8h7V488z M235,477h-7v-6h7V477z
				 M235,468h-7v-7h7V468z M235,457h-7v-7h7V457z M235,437h-7v-7h7V437z M235,426h-7v-6h7V426z M243,498h-6v-7h6V498z M243,488h-6
				v-8h6V488z M243,468h-6v-7h6V468z M243,457h-6v-7h6V457z M243,447h-6v-8h6V447z M243,437h-6v-7h6V437z M243,426h-6v-6h6V426z
				 M251,488h-6v-8h6V488z M251,477h-6v-6h6V477z M251,468h-6v-7h6V468z M251,447h-6v-8h6V447z M251,437h-6v-7h6V437z"/>
			<rect x="228" y="420" class="st2" width="7" height="6"/>
			<rect x="237" y="420" class="st2" width="6" height="6"/>
			<rect x="228" y="430" class="st2" width="7" height="7"/>
			<rect x="245" y="430" class="st2" width="6" height="7"/>
			<rect x="237" y="430" class="st2" width="6" height="7"/>
			<rect x="245" y="439" class="st2" width="6" height="8"/>
			<rect x="237" y="439" class="st2" width="6" height="8"/>
			<rect x="228" y="450" class="st2" width="7" height="7"/>
			<rect x="237" y="450" class="st2" width="6" height="7"/>
			<rect x="228" y="461" class="st2" width="7" height="7"/>
			<rect x="245" y="461" class="st2" width="6" height="7"/>
			<rect x="237" y="461" class="st2" width="6" height="7"/>
			<rect x="228" y="471" class="st2" width="7" height="6"/>
			<rect x="245" y="471" class="st2" width="6" height="6"/>
			<rect x="228" y="480" class="st2" width="7" height="8"/>
			<rect x="245" y="480" class="st2" width="6" height="8"/>
			<rect x="237" y="480" class="st2" width="6" height="8"/>
			<rect x="228" y="491" class="st2" width="7" height="7"/>
			<rect x="237" y="491" class="st2" width="6" height="7"/>
		</g>
		<g>
			<path class="st11" d="M480,388v-6.4V354h-4v-32h-7v-13h-4v13h-8v32h-4v27.6v6.4h-4v120h37V388H480z M468,429v12h-3v-12H468z
				 M474,441h-2v-12h2V441z M474,446v13h-2v-13H474z M465,446h3v13h-3V446z M462,441h-3v-12h3V441z M459,446h3v13h-3V446z M453,484
				v-12.8V468h2v16H453z M459,484v-16h3v16H459z M465,484v-16h3v16H465z M472,484v-16h2v16H472z M477,484v-16h3v16H477z"/>
			<polygon class="st2" points="455,468 453,468 453,471.2 453,484 455,484 			"/>
			<rect x="459" y="468" class="st2" width="3" height="16"/>
			<rect x="465" y="468" class="st2" width="3" height="16"/>
			<rect x="472" y="468" class="st2" width="2" height="16"/>
			<rect x="477" y="468" class="st2" width="3" height="16"/>
			<rect x="459" y="446" class="st2" width="3" height="13"/>
			<rect x="465" y="446" class="st2" width="3" height="13"/>
			<rect x="472" y="446" class="st2" width="2" height="13"/>
			<rect x="459" y="429" class="st2" width="3" height="12"/>
			<rect x="465" y="429" class="st2" width="3" height="12"/>
			<rect x="472" y="429" class="st2" width="2" height="12"/>
			<rect x="459" y="413" class="st2" width="3" height="12"/>
			<rect x="465" y="413" class="st2" width="3" height="12"/>
			<rect x="472" y="413" class="st2" width="2" height="12"/>
			<rect x="459" y="396" class="st2" width="3" height="13"/>
			<rect x="465" y="396" class="st2" width="3" height="13"/>
			<rect x="472" y="396" class="st2" width="2" height="13"/>
			<rect x="460" y="375" class="st2" width="4" height="12"/>
			<rect x="471" y="375" class="st2" width="3" height="12"/>
			<rect x="460" y="359" class="st2" width="4" height="13"/>
			<rect x="471" y="359" class="st2" width="3" height="13"/>
			<rect x="466" y="339" class="st2" width="2" height="12"/>
			<rect x="461" y="339" class="st2" width="3" height="12"/>
			<rect x="466" y="325" class="st2" width="2" height="11"/>
			<rect x="471" y="339" class="st2" width="2" height="12"/>
		</g>
		<g>
			<path class="st11" d="M559.5,508c0,0,0-33.7,0-60.3s-35.6-44.2-35.6-44.2V508H559.5z"/>
			<rect x="529" y="469" class="st2" width="4" height="15"/>
			<rect x="536" y="469" class="st2" width="4" height="15"/>
			<rect x="550" y="469" class="st2" width="3" height="15"/>
			<rect x="529" y="450" class="st2" width="4" height="13"/>
			<rect x="543" y="450" class="st2" width="4" height="13"/>
			<rect x="550" y="450" class="st2" width="3" height="13"/>
			<rect x="529" y="428" class="st2" width="4" height="15"/>
			<rect x="536" y="428" class="st2" width="4" height="15"/>
		</g>
		<path class="st11" d="M584.2,507l-5.5-44.3l2.3-32.1l0.3-4l-0.3,4c2.6-1.1,4.3-3.1,4.3-5.3c0-3.2-2.3-5.9-8.3-6.3v-22h-3v21.9
			c-4,0.3-8.2,3-8.2,6.3c0,2.2,1.9,4.2,4.6,5.3l2.4,32l-5.5,44.5l-1.9,1h10h0.8h10L584.2,507z"/>
	</g>
</g>
<path class="st1" d="M565.1,533.3c9.7-7.8,18.7-16.2,27.2-25.3H219c9.2,10,19.3,19.2,30,27.6C273.1,538.4,420.1,554.1,565.1,533.3z"
	/>
</svg>
