<svg xmlns="http://www.w3.org/2000/svg" xmlns:xlink="http://www.w3.org/1999/xlink" width="375" viewBox="0 0 375 375" height="375" version="1.0"><defs><g id="i"><path d="M 1.125 0 L 1.125 -9.203125 L 1.65625 -9.203125 L 1.65625 -0.53125 L 6.765625 -0.53125 L 6.765625 0 Z M 1.125 0"/></g><g id="j"><path d="M 3.046875 -4.515625 C 2.785156 -4.515625 2.535156 -4.46875 2.296875 -4.375 C 2.066406 -4.28125 1.863281 -4.148438 1.6875 -3.984375 C 1.507812 -3.816406 1.363281 -3.625 1.25 -3.40625 C 1.144531 -3.1875 1.078125 -2.953125 1.046875 -2.703125 C 1.046875 -2.597656 1.046875 -2.492188 1.046875 -2.390625 C 1.046875 -2.285156 1.054688 -2.1875 1.078125 -2.09375 C 1.660156 -2.332031 2.242188 -2.566406 2.828125 -2.796875 C 3.421875 -3.023438 4.019531 -3.257812 4.625 -3.5 C 4.46875 -3.800781 4.25 -4.046875 3.96875 -4.234375 C 3.6875 -4.421875 3.378906 -4.515625 3.046875 -4.515625 Z M 5.3125 -3.203125 C 4.625 -2.929688 3.941406 -2.660156 3.265625 -2.390625 C 2.597656 -2.117188 1.921875 -1.847656 1.234375 -1.578125 C 1.378906 -1.242188 1.613281 -0.972656 1.9375 -0.765625 C 2.269531 -0.554688 2.640625 -0.453125 3.046875 -0.453125 C 3.316406 -0.453125 3.570312 -0.5 3.8125 -0.59375 C 4.050781 -0.6875 4.257812 -0.820312 4.4375 -1 C 4.5 -0.925781 4.554688 -0.859375 4.609375 -0.796875 C 4.660156 -0.734375 4.71875 -0.664062 4.78125 -0.59375 C 4.550781 -0.382812 4.289062 -0.21875 4 -0.09375 C 3.707031 0.03125 3.390625 0.09375 3.046875 0.09375 C 2.691406 0.09375 2.359375 0.0234375 2.046875 -0.109375 C 1.734375 -0.242188 1.457031 -0.425781 1.21875 -0.65625 C 0.988281 -0.882812 0.804688 -1.15625 0.671875 -1.46875 C 0.535156 -1.78125 0.46875 -2.113281 0.46875 -2.46875 C 0.46875 -2.820312 0.535156 -3.15625 0.671875 -3.46875 C 0.804688 -3.789062 0.988281 -4.0625 1.21875 -4.28125 C 1.457031 -4.507812 1.734375 -4.691406 2.046875 -4.828125 C 2.359375 -4.960938 2.691406 -5.03125 3.046875 -5.03125 C 3.316406 -5.03125 3.566406 -4.984375 3.796875 -4.890625 C 4.035156 -4.804688 4.253906 -4.679688 4.453125 -4.515625 C 4.648438 -4.359375 4.820312 -4.164062 4.96875 -3.9375 C 5.125 -3.71875 5.238281 -3.472656 5.3125 -3.203125 Z M 5.3125 -3.203125"/></g><g id="l"><path d="M 4.859375 -3.828125 C 4.753906 -4.015625 4.660156 -4.195312 4.578125 -4.375 C 4.492188 -4.5625 4.40625 -4.75 4.3125 -4.9375 L 4.875 -4.9375 C 5.207031 -4.226562 5.550781 -3.519531 5.90625 -2.8125 C 6.269531 -2.113281 6.613281 -1.410156 6.9375 -0.703125 C 7.25 -1.410156 7.582031 -2.113281 7.9375 -2.8125 C 8.300781 -3.519531 8.65625 -4.226562 9 -4.9375 L 9.546875 -4.9375 C 9.109375 -4.0625 8.671875 -3.1875 8.234375 -2.3125 C 7.804688 -1.445312 7.375 -0.578125 6.9375 0.296875 C 6.632812 -0.304688 6.332031 -0.898438 6.03125 -1.484375 C 5.738281 -2.078125 5.441406 -2.675781 5.140625 -3.28125 C 4.847656 -2.675781 4.550781 -2.078125 4.25 -1.484375 C 3.945312 -0.898438 3.648438 -0.304688 3.359375 0.296875 C 2.921875 -0.578125 2.484375 -1.445312 2.046875 -2.3125 C 1.609375 -3.1875 1.171875 -4.0625 0.734375 -4.9375 L 1.296875 -4.9375 C 1.628906 -4.226562 1.972656 -3.519531 2.328125 -2.8125 C 2.691406 -2.113281 3.035156 -1.410156 3.359375 -0.703125 C 3.585938 -1.222656 3.828125 -1.742188 4.078125 -2.265625 C 4.335938 -2.785156 4.597656 -3.304688 4.859375 -3.828125 Z M 4.859375 -3.828125"/></g><g id="m"><path d="M 5.703125 -2.46875 C 5.703125 -2.75 5.648438 -3.015625 5.546875 -3.265625 C 5.441406 -3.515625 5.300781 -3.734375 5.125 -3.921875 C 4.945312 -4.109375 4.734375 -4.253906 4.484375 -4.359375 C 4.234375 -4.460938 3.960938 -4.515625 3.671875 -4.515625 C 3.378906 -4.515625 3.109375 -4.460938 2.859375 -4.359375 C 2.609375 -4.253906 2.394531 -4.109375 2.21875 -3.921875 C 2.039062 -3.734375 1.894531 -3.515625 1.78125 -3.265625 C 1.675781 -3.015625 1.625 -2.75 1.625 -2.46875 C 1.625 -2.1875 1.675781 -1.921875 1.78125 -1.671875 C 1.894531 -1.429688 2.039062 -1.21875 2.21875 -1.03125 C 2.394531 -0.851562 2.609375 -0.710938 2.859375 -0.609375 C 3.109375 -0.503906 3.378906 -0.453125 3.671875 -0.453125 C 3.960938 -0.453125 4.234375 -0.503906 4.484375 -0.609375 C 4.734375 -0.710938 4.945312 -0.851562 5.125 -1.03125 C 5.300781 -1.21875 5.441406 -1.429688 5.546875 -1.671875 C 5.648438 -1.921875 5.703125 -2.1875 5.703125 -2.46875 Z M 6.265625 -2.46875 C 6.265625 -2.113281 6.195312 -1.78125 6.0625 -1.46875 C 5.925781 -1.15625 5.738281 -0.882812 5.5 -0.65625 C 5.269531 -0.425781 4.992188 -0.242188 4.671875 -0.109375 C 4.359375 0.0234375 4.023438 0.09375 3.671875 0.09375 C 3.398438 0.09375 3.144531 0.0546875 2.90625 -0.015625 C 2.675781 -0.0859375 2.472656 -0.179688 2.296875 -0.296875 C 2.117188 -0.410156 1.960938 -0.539062 1.828125 -0.6875 C 1.703125 -0.84375 1.613281 -0.992188 1.5625 -1.140625 C 1.5625 -1.046875 1.5625 -0.953125 1.5625 -0.859375 C 1.570312 -0.773438 1.578125 -0.6875 1.578125 -0.59375 L 1.578125 0 L 1.078125 0 L 1.078125 -9.859375 L 1.625 -9.859375 L 1.625 -4.375 C 1.613281 -4.28125 1.601562 -4.179688 1.59375 -4.078125 C 1.59375 -3.984375 1.585938 -3.882812 1.578125 -3.78125 C 1.628906 -3.9375 1.71875 -4.085938 1.84375 -4.234375 C 1.976562 -4.378906 2.140625 -4.507812 2.328125 -4.625 C 2.515625 -4.75 2.71875 -4.847656 2.9375 -4.921875 C 3.164062 -4.992188 3.410156 -5.03125 3.671875 -5.03125 C 4.023438 -5.03125 4.359375 -4.960938 4.671875 -4.828125 C 4.992188 -4.691406 5.269531 -4.507812 5.5 -4.28125 C 5.738281 -4.050781 5.925781 -3.78125 6.0625 -3.46875 C 6.195312 -3.15625 6.265625 -2.820312 6.265625 -2.46875 Z M 6.265625 -2.46875"/></g><g id="n"><path d="M 1.75 -4.9375 L 5.046875 -4.9375 L 5.046875 -4.390625 C 4.390625 -3.734375 3.765625 -3.09375 3.171875 -2.46875 C 2.585938 -1.84375 1.96875 -1.203125 1.3125 -0.546875 L 5.296875 -0.546875 L 5.296875 0 L 0.546875 0 L 0.546875 -0.546875 C 1.210938 -1.203125 1.835938 -1.84375 2.421875 -2.46875 C 3.003906 -3.101562 3.625 -3.75 4.28125 -4.40625 L 1.65625 -4.40625 C 1.382812 -4.40625 1.171875 -4.457031 1.015625 -4.5625 C 0.867188 -4.664062 0.796875 -4.847656 0.796875 -5.109375 L 0.796875 -5.390625 L 1.359375 -5.390625 L 1.359375 -5.234375 C 1.359375 -5.128906 1.382812 -5.050781 1.4375 -5 C 1.5 -4.957031 1.601562 -4.9375 1.75 -4.9375 Z M 1.75 -4.9375"/></g><g id="o"><path d="M 0.828125 -6.6875 C 0.828125 -6.8125 0.867188 -6.914062 0.953125 -7 C 1.046875 -7.082031 1.148438 -7.125 1.265625 -7.125 C 1.378906 -7.125 1.476562 -7.082031 1.5625 -7 C 1.65625 -6.914062 1.703125 -6.8125 1.703125 -6.6875 C 1.703125 -6.5625 1.65625 -6.457031 1.5625 -6.375 C 1.476562 -6.289062 1.378906 -6.25 1.265625 -6.25 C 1.148438 -6.25 1.046875 -6.289062 0.953125 -6.375 C 0.867188 -6.457031 0.828125 -6.5625 0.828125 -6.6875 Z M 1.53125 0 L 0.984375 0 L 0.984375 -4.9375 L 1.53125 -4.9375 Z M 1.53125 0"/></g><g id="p"><path d="M 1.359375 -4.9375 L 1.859375 -4.9375 L 1.859375 -4.46875 C 1.859375 -4.320312 1.859375 -4.1875 1.859375 -4.0625 C 1.859375 -3.9375 1.863281 -3.800781 1.875 -3.65625 C 2.039062 -4.070312 2.316406 -4.40625 2.703125 -4.65625 C 3.085938 -4.90625 3.53125 -5.03125 4.03125 -5.03125 C 4.507812 -5.03125 4.890625 -4.894531 5.171875 -4.625 C 5.453125 -4.351562 5.601562 -4 5.625 -3.5625 L 5.625 0 L 5.0625 0 L 5.0625 -3.421875 C 5.039062 -3.703125 4.9375 -3.945312 4.75 -4.15625 C 4.5625 -4.363281 4.285156 -4.476562 3.921875 -4.5 C 3.660156 -4.5 3.40625 -4.453125 3.15625 -4.359375 C 2.914062 -4.265625 2.703125 -4.140625 2.515625 -3.984375 C 2.328125 -3.828125 2.175781 -3.640625 2.0625 -3.421875 C 1.957031 -3.203125 1.90625 -2.960938 1.90625 -2.703125 L 1.90625 0 L 1.359375 0 Z M 1.359375 -4.9375"/></g><g id="q"><path d="M 1.25 -2.46875 C 1.25 -2.1875 1.300781 -1.921875 1.40625 -1.671875 C 1.507812 -1.429688 1.648438 -1.21875 1.828125 -1.03125 C 2.015625 -0.851562 2.226562 -0.710938 2.46875 -0.609375 C 2.71875 -0.503906 2.988281 -0.453125 3.28125 -0.453125 C 3.5625 -0.453125 3.828125 -0.503906 4.078125 -0.609375 C 4.328125 -0.710938 4.546875 -0.851562 4.734375 -1.03125 C 4.921875 -1.21875 5.066406 -1.429688 5.171875 -1.671875 C 5.273438 -1.921875 5.328125 -2.1875 5.328125 -2.46875 C 5.328125 -2.75 5.273438 -3.015625 5.171875 -3.265625 C 5.066406 -3.515625 4.921875 -3.734375 4.734375 -3.921875 C 4.546875 -4.109375 4.328125 -4.253906 4.078125 -4.359375 C 3.828125 -4.460938 3.5625 -4.515625 3.28125 -4.515625 C 2.988281 -4.515625 2.71875 -4.460938 2.46875 -4.359375 C 2.226562 -4.253906 2.015625 -4.109375 1.828125 -3.921875 C 1.648438 -3.734375 1.507812 -3.515625 1.40625 -3.265625 C 1.300781 -3.015625 1.25 -2.75 1.25 -2.46875 Z M 0.703125 -2.46875 C 0.703125 -2.820312 0.765625 -3.15625 0.890625 -3.46875 C 1.023438 -3.78125 1.207031 -4.050781 1.4375 -4.28125 C 1.675781 -4.507812 1.953125 -4.691406 2.265625 -4.828125 C 2.578125 -4.960938 2.914062 -5.03125 3.28125 -5.03125 C 3.539062 -5.03125 3.785156 -4.992188 4.015625 -4.921875 C 4.242188 -4.847656 4.445312 -4.75 4.625 -4.625 C 4.8125 -4.507812 4.96875 -4.378906 5.09375 -4.234375 C 5.226562 -4.085938 5.320312 -3.9375 5.375 -3.78125 C 5.375 -3.882812 5.367188 -3.984375 5.359375 -4.078125 C 5.347656 -4.179688 5.335938 -4.28125 5.328125 -4.375 L 5.328125 -9.859375 L 5.875 -9.859375 L 5.875 0 L 5.375 0 L 5.375 -1.140625 C 5.320312 -0.992188 5.234375 -0.84375 5.109375 -0.6875 C 4.984375 -0.539062 4.828125 -0.410156 4.640625 -0.296875 C 4.460938 -0.179688 4.257812 -0.0859375 4.03125 -0.015625 C 3.800781 0.0546875 3.550781 0.09375 3.28125 0.09375 C 2.914062 0.09375 2.578125 0.0234375 2.265625 -0.109375 C 1.953125 -0.242188 1.675781 -0.425781 1.4375 -0.65625 C 1.207031 -0.882812 1.023438 -1.15625 0.890625 -1.46875 C 0.765625 -1.78125 0.703125 -2.113281 0.703125 -2.46875 Z M 0.703125 -2.46875"/></g><g id="r"><path d="M 5.625 0.046875 L 5.0625 0.046875 L 5.0625 -0.6875 L 5.109375 -1.28125 C 4.929688 -0.851562 4.644531 -0.515625 4.25 -0.265625 C 3.863281 -0.015625 3.429688 0.109375 2.953125 0.109375 C 2.460938 0.109375 2.078125 -0.0234375 1.796875 -0.296875 C 1.515625 -0.566406 1.367188 -0.925781 1.359375 -1.375 L 1.359375 -4.9375 L 1.90625 -4.9375 L 1.90625 -1.515625 C 1.925781 -1.234375 2.03125 -0.984375 2.21875 -0.765625 C 2.40625 -0.554688 2.679688 -0.445312 3.046875 -0.4375 C 3.316406 -0.4375 3.570312 -0.476562 3.8125 -0.5625 C 4.0625 -0.65625 4.273438 -0.78125 4.453125 -0.9375 C 4.640625 -1.101562 4.785156 -1.296875 4.890625 -1.515625 C 5.003906 -1.734375 5.0625 -1.972656 5.0625 -2.234375 L 5.0625 -4.9375 L 5.625 -4.9375 Z M 5.625 0.046875"/></g><g id="s"><path d="M 0.296875 -4.421875 L 0.296875 -4.953125 L 1.140625 -4.953125 L 1.140625 -6.8125 C 1.140625 -7.289062 1.207031 -7.71875 1.34375 -8.09375 C 1.488281 -8.476562 1.679688 -8.796875 1.921875 -9.046875 C 2.171875 -9.304688 2.460938 -9.503906 2.796875 -9.640625 C 3.128906 -9.773438 3.488281 -9.847656 3.875 -9.859375 L 3.875 -9.34375 C 3.570312 -9.332031 3.285156 -9.269531 3.015625 -9.15625 C 2.753906 -9.039062 2.523438 -8.875 2.328125 -8.65625 C 2.128906 -8.4375 1.972656 -8.171875 1.859375 -7.859375 C 1.742188 -7.554688 1.6875 -7.210938 1.6875 -6.828125 L 1.6875 -4.953125 L 3.328125 -4.953125 L 3.328125 -4.421875 L 1.6875 -4.421875 L 1.6875 0 L 1.140625 0 L 1.140625 -4.421875 Z M 0.296875 -4.421875"/></g><g id="t"><path d="M 1.625 -8.140625 L 2.1875 -8.140625 L 2.1875 -4.921875 L 3.703125 -4.921875 L 3.703125 -4.375 L 2.1875 -4.375 L 2.1875 0 L 1.625 0 L 1.625 -4.375 L 0.484375 -4.375 L 0.484375 -4.921875 L 1.625 -4.921875 Z M 1.625 -8.140625"/></g><g id="u"><path d="M 3.890625 -4.5 C 3.609375 -4.488281 3.347656 -4.4375 3.109375 -4.34375 C 2.867188 -4.25 2.660156 -4.125 2.484375 -3.96875 C 2.304688 -3.8125 2.164062 -3.625 2.0625 -3.40625 C 1.957031 -3.1875 1.90625 -2.953125 1.90625 -2.703125 L 1.90625 0 L 1.359375 0 L 1.359375 -4.9375 L 1.859375 -4.9375 L 1.859375 -4.46875 C 1.859375 -4.320312 1.859375 -4.1875 1.859375 -4.0625 C 1.859375 -3.9375 1.863281 -3.800781 1.875 -3.65625 C 2.0625 -4.082031 2.347656 -4.414062 2.734375 -4.65625 C 3.128906 -4.90625 3.53125 -5.03125 3.9375 -5.03125 Z M 3.890625 -4.5"/></g><g id="a"><path d="M 11.367188 0 L 11.367188 -1.984375 C 10.015625 -1.984375 8.859375 -4.726562 7.941406 -6.710938 C 6.605469 -9.816406 5.269531 -12.632812 2.707031 -12.632812 L 2.707031 -10.648438 C 4.058594 -10.648438 5.214844 -7.957031 6.117188 -5.953125 C 7.433594 -2.996094 8.75 0 11.367188 0 Z M 11.367188 -1.984375 L 13.351562 -1.984375 L 13.351562 -12.632812 L 11.367188 -12.632812 Z M 0.722656 0 L 2.707031 0 L 2.707031 -10.648438 L 0.722656 -10.648438 Z M 0.722656 0"/></g><g id="b"><path d="M 2.707031 -10.648438 L 13.351562 -10.648438 L 13.351562 -12.632812 L 2.707031 -12.632812 Z M 3.96875 0 L 13.351562 0 L 13.351562 -1.984375 L 3.96875 -1.984375 C 3.285156 -1.984375 2.707031 -2.542969 2.707031 -3.25 L 2.707031 -10.648438 L 0.722656 -10.648438 L 0.722656 -3.25 C 0.722656 -1.445312 2.164062 0 3.96875 0 Z M 3.953125 -5.324219 L 12.089844 -5.324219 L 12.089844 -7.308594 L 3.953125 -7.308594 Z M 3.953125 -5.324219"/></g><g id="c"><path d="M 0.722656 0 L 2.707031 0 L 2.707031 -3.429688 C 2.707031 -4.132812 3.265625 -4.960938 4.242188 -4.960938 L 6.386719 -4.960938 L 6.386719 -6.949219 L 4.511719 -6.949219 C 3.265625 -6.949219 2.707031 -7.777344 2.707031 -9.023438 L 2.707031 -12.632812 L 0.722656 -12.632812 L 0.722656 -9.023438 C 0.722656 -7.507812 1.101562 -6.621094 2.238281 -5.953125 C 1.101562 -5.289062 0.722656 -4.402344 0.722656 -3.429688 Z M 11.367188 0 L 13.351562 0 L 13.351562 -3.429688 C 13.351562 -4.402344 12.972656 -5.289062 11.835938 -5.953125 C 12.972656 -6.621094 13.351562 -7.507812 13.351562 -9.023438 L 13.351562 -12.632812 L 11.367188 -12.632812 L 11.367188 -9.023438 C 11.367188 -7.777344 10.808594 -6.949219 9.5625 -6.949219 L 7.667969 -6.949219 L 7.667969 -4.960938 L 9.835938 -4.960938 C 10.808594 -4.960938 11.367188 -4.132812 11.367188 -3.429688 Z M 11.367188 0"/></g><g id="d"><path d="M 6.0625 0 L 8.03125 0 L 8.03125 -9.382812 C 8.03125 -11.207031 6.605469 -12.632812 4.78125 -12.632812 L 0.722656 -12.632812 L 0.722656 -10.648438 L 4.78125 -10.648438 C 5.484375 -10.648438 6.0625 -10.085938 6.0625 -9.382812 Z M 8.03125 -10.648438 L 13.351562 -10.648438 L 13.351562 -12.632812 L 8.03125 -12.632812 Z M 8.03125 -10.648438"/></g><g id="e"><path d="M 11.367188 -1.984375 L 13.351562 -1.984375 L 13.351562 -9.382812 C 13.351562 -11.296875 12 -12.632812 10.105469 -12.632812 L 2.707031 -12.632812 L 2.707031 -10.648438 L 10.105469 -10.648438 C 10.789062 -10.648438 11.367188 -10.085938 11.367188 -9.382812 Z M 3.96875 0 L 11.367188 0 L 11.367188 -1.984375 L 3.96875 -1.984375 C 3.265625 -1.984375 2.707031 -2.542969 2.707031 -3.25 L 2.707031 -10.648438 L 0.722656 -10.648438 L 0.722656 -3.25 C 0.722656 -1.335938 2.058594 0 3.96875 0 Z M 3.96875 0"/></g><g id="f"><path d="M 1.28125 -10.648438 L 11.386719 -10.648438 L 11.386719 -12.632812 L 1.28125 -12.632812 Z M 0.722656 -1.984375 L 2.707031 -1.984375 C 2.707031 -3.25 5.214844 -4.203125 7.867188 -5.46875 C 10.449219 -6.710938 13.351562 -8.191406 13.351562 -10.648438 L 11.386719 -10.648438 C 11.386719 -9.238281 8.769531 -8.085938 6.496094 -6.984375 C 3.699219 -5.648438 0.722656 -4.457031 0.722656 -1.984375 Z M 2.707031 0 L 12.8125 0 L 12.8125 -1.984375 L 2.707031 -1.984375 Z M 2.707031 0"/></g><g id="g"><path d="M 11.367188 -1.984375 L 13.351562 -1.984375 L 13.351562 -3.664062 C 13.351562 -4.910156 12.972656 -5.648438 12.378906 -6.316406 C 12.972656 -6.984375 13.351562 -7.832031 13.351562 -8.988281 C 13.351562 -10.898438 12.109375 -12.632812 10.015625 -12.632812 L 2.6875 -12.632812 L 2.6875 -10.648438 L 10.015625 -10.648438 C 10.71875 -10.648438 11.367188 -9.960938 11.367188 -8.988281 C 11.367188 -8.011719 10.71875 -7.308594 10.015625 -7.308594 L 3.953125 -7.308594 L 3.953125 -5.324219 L 10.015625 -5.324219 C 10.71875 -5.324219 11.367188 -4.636719 11.367188 -3.664062 Z M 3.953125 0 L 11.367188 0 L 11.367188 -1.984375 L 3.953125 -1.984375 C 3.265625 -1.984375 2.6875 -2.542969 2.6875 -3.25 L 2.6875 -10.648438 L 0.722656 -10.648438 L 0.722656 -3.25 C 0.722656 -1.445312 2.148438 0 3.953125 0 Z M 3.953125 0"/></g><g id="h"><path d="M 11.367188 -8.84375 L 13.351562 -8.84375 C 13.351562 -11.027344 12.019531 -12.632812 10.105469 -12.632812 L 2.707031 -12.632812 L 2.707031 -10.648438 L 9.925781 -10.648438 C 10.808594 -10.648438 11.367188 -9.816406 11.367188 -8.84375 Z M 11.367188 -1.984375 L 13.351562 -1.984375 L 13.351562 -4.058594 C 13.351562 -5.972656 12.019531 -7.308594 10.105469 -7.308594 L 3.96875 -7.308594 C 3.285156 -7.308594 2.707031 -7.867188 2.707031 -8.570312 L 2.707031 -10.648438 L 0.722656 -10.648438 L 0.722656 -8.570312 C 0.722656 -6.675781 2.074219 -5.324219 3.96875 -5.324219 L 10.105469 -5.324219 C 10.808594 -5.324219 11.367188 -4.765625 11.367188 -4.058594 Z M 3.96875 0 L 11.367188 0 L 11.367188 -1.984375 L 4.148438 -1.984375 C 3.285156 -1.984375 2.707031 -2.816406 2.707031 -3.789062 L 0.722656 -3.789062 C 0.722656 -1.625 2.074219 0 3.96875 0 Z M 3.96875 0"/></g></defs><path d="M-37.5 -37.5H412.5V412.5H-37.5z"/><g fill="#FFF"><use x="103.087" y="240.897" xmlns:xlink="http://www.w3.org/1999/xlink" xlink:href="#a" xlink:type="simple" xlink:actuate="onLoad" xlink:show="embed"/></g><g fill="#FFF"><use x="117.154" y="240.897" xmlns:xlink="http://www.w3.org/1999/xlink" xlink:href="#b" xlink:type="simple" xlink:actuate="onLoad" xlink:show="embed"/></g><g fill="#FFF"><use x="131.222" y="240.897" xmlns:xlink="http://www.w3.org/1999/xlink" xlink:href="#c" xlink:type="simple" xlink:actuate="onLoad" xlink:show="embed"/></g><g fill="#FFF"><use x="145.289" y="240.897" xmlns:xlink="http://www.w3.org/1999/xlink" xlink:href="#d" xlink:type="simple" xlink:actuate="onLoad" xlink:show="embed"/></g><g fill="#FFF"><use x="159.357" y="240.897" xmlns:xlink="http://www.w3.org/1999/xlink" xlink:href="#d" xlink:type="simple" xlink:actuate="onLoad" xlink:show="embed"/></g><g fill="#FFF"><use x="173.424" y="240.897" xmlns:xlink="http://www.w3.org/1999/xlink" xlink:href="#e" xlink:type="simple" xlink:actuate="onLoad" xlink:show="embed"/></g><g fill="#FFF"><use x="187.492" y="240.897" xmlns:xlink="http://www.w3.org/1999/xlink" xlink:href="#f" xlink:type="simple" xlink:actuate="onLoad" xlink:show="embed"/></g><g fill="#FFF"><use x="201.559" y="240.897" xmlns:xlink="http://www.w3.org/1999/xlink" xlink:href="#b" xlink:type="simple" xlink:actuate="onLoad" xlink:show="embed"/></g><g fill="#FFF"><use x="215.626" y="240.897" xmlns:xlink="http://www.w3.org/1999/xlink" xlink:href="#g" xlink:type="simple" xlink:actuate="onLoad" xlink:show="embed"/></g><g fill="#FFF"><use x="229.694" y="240.897" xmlns:xlink="http://www.w3.org/1999/xlink" xlink:href="#b" xlink:type="simple" xlink:actuate="onLoad" xlink:show="embed"/></g><g fill="#FFF"><use x="243.761" y="240.897" xmlns:xlink="http://www.w3.org/1999/xlink" xlink:href="#h" xlink:type="simple" xlink:actuate="onLoad" xlink:show="embed"/></g><g fill="#FFF"><use x="257.829" y="240.897" xmlns:xlink="http://www.w3.org/1999/xlink" xlink:href="#d" xlink:type="simple" xlink:actuate="onLoad" xlink:show="embed"/></g><g fill="#FFF"><use x="132.856" y="265.899" xmlns:xlink="http://www.w3.org/1999/xlink" xlink:href="#i" xlink:type="simple" xlink:actuate="onLoad" xlink:show="embed"/></g><g fill="#FFF"><use x="140.66" y="265.899" xmlns:xlink="http://www.w3.org/1999/xlink" xlink:href="#j" xlink:type="simple" xlink:actuate="onLoad" xlink:show="embed"/></g><g fill="#FFF"><use x="146.595" y="265.899" xmlns:xlink="http://www.w3.org/1999/xlink" xlink:href="#k" xlink:type="simple" xlink:actuate="onLoad" xlink:show="embed"/></g><g fill="#FFF"><use x="150.543" y="265.899" xmlns:xlink="http://www.w3.org/1999/xlink" xlink:href="#l" xlink:type="simple" xlink:actuate="onLoad" xlink:show="embed"/></g><g fill="#FFF"><use x="160.703" y="265.899" xmlns:xlink="http://www.w3.org/1999/xlink" xlink:href="#j" xlink:type="simple" xlink:actuate="onLoad" xlink:show="embed"/></g><g fill="#FFF"><use x="166.638" y="265.899" xmlns:xlink="http://www.w3.org/1999/xlink" xlink:href="#m" xlink:type="simple" xlink:actuate="onLoad" xlink:show="embed"/></g><g fill="#FFF"><use x="173.6" y="265.899" xmlns:xlink="http://www.w3.org/1999/xlink" xlink:href="#n" xlink:type="simple" xlink:actuate="onLoad" xlink:show="embed"/></g><g fill="#FFF"><use x="179.535" y="265.899" xmlns:xlink="http://www.w3.org/1999/xlink" xlink:href="#o" xlink:type="simple" xlink:actuate="onLoad" xlink:show="embed"/></g><g fill="#FFF"><use x="181.996" y="265.899" xmlns:xlink="http://www.w3.org/1999/xlink" xlink:href="#p" xlink:type="simple" xlink:actuate="onLoad" xlink:show="embed"/></g><g fill="#FFF"><use x="188.51" y="265.899" xmlns:xlink="http://www.w3.org/1999/xlink" xlink:href="#j" xlink:type="simple" xlink:actuate="onLoad" xlink:show="embed"/></g><g fill="#FFF"><use x="194.446" y="265.899" xmlns:xlink="http://www.w3.org/1999/xlink" xlink:href="#k" xlink:type="simple" xlink:actuate="onLoad" xlink:show="embed"/></g><g fill="#FFF"><use x="198.394" y="265.899" xmlns:xlink="http://www.w3.org/1999/xlink" xlink:href="#q" xlink:type="simple" xlink:actuate="onLoad" xlink:show="embed"/></g><g fill="#FFF"><use x="205.29" y="265.899" xmlns:xlink="http://www.w3.org/1999/xlink" xlink:href="#r" xlink:type="simple" xlink:actuate="onLoad" xlink:show="embed"/></g><g fill="#FFF"><use x="212.251" y="265.899" xmlns:xlink="http://www.w3.org/1999/xlink" xlink:href="#k" xlink:type="simple" xlink:actuate="onLoad" xlink:show="embed"/></g><g fill="#FFF"><use x="216.199" y="265.899" xmlns:xlink="http://www.w3.org/1999/xlink" xlink:href="#s" xlink:type="simple" xlink:actuate="onLoad" xlink:show="embed"/></g><g fill="#FFF"><use x="220.068" y="265.899" xmlns:xlink="http://www.w3.org/1999/xlink" xlink:href="#r" xlink:type="simple" xlink:actuate="onLoad" xlink:show="embed"/></g><g fill="#FFF"><use x="227.03" y="265.899" xmlns:xlink="http://www.w3.org/1999/xlink" xlink:href="#t" xlink:type="simple" xlink:actuate="onLoad" xlink:show="embed"/></g><g fill="#FFF"><use x="230.807" y="265.899" xmlns:xlink="http://www.w3.org/1999/xlink" xlink:href="#r" xlink:type="simple" xlink:actuate="onLoad" xlink:show="embed"/></g><g fill="#FFF"><use x="237.769" y="265.899" xmlns:xlink="http://www.w3.org/1999/xlink" xlink:href="#u" xlink:type="simple" xlink:actuate="onLoad" xlink:show="embed"/></g><path fill="#1F90A3" d="M 194.304688 200.695312 C 194.304688 203.382812 192.128906 205.558594 189.453125 205.558594 L 185.746094 205.558594 C 183.0625 205.558594 180.894531 203.382812 180.894531 200.695312 L 180.894531 110.074219 C 180.894531 107.390625 183.0625 105.214844 185.746094 105.214844 L 189.453125 105.214844 C 192.128906 105.214844 194.304688 107.390625 194.304688 110.078125 L 194.304688 200.699219"/><path fill="#1F90A3" d="M 210.71875 188.40625 C 210.71875 191.089844 208.542969 193.265625 205.863281 193.265625 L 205.578125 193.265625 C 202.898438 193.265625 200.726562 191.089844 200.726562 188.40625 L 200.726562 122.371094 C 200.726562 119.683594 202.898438 117.507812 205.578125 117.507812 L 205.863281 117.507812 C 208.542969 117.507812 210.71875 119.683594 210.71875 122.367188 L 210.71875 188.40625"/><path fill="#1F90A3" d="M 224.984375 175.6875 C 224.984375 178.210938 222.941406 180.257812 220.421875 180.257812 C 217.898438 180.257812 215.851562 178.210938 215.851562 175.6875 L 215.851562 135.089844 C 215.851562 132.5625 217.898438 130.515625 220.421875 130.515625 C 222.941406 130.515625 224.984375 132.5625 224.984375 135.089844 L 224.984375 175.6875"/><path fill="#1F90A3" d="M 238.402344 186.832031 C 238.402344 189.042969 236.613281 190.835938 234.40625 190.835938 C 232.199219 190.835938 230.410156 189.042969 230.410156 186.832031 L 230.410156 123.9375 C 230.410156 121.730469 232.199219 119.9375 234.40625 119.9375 C 236.613281 119.9375 238.402344 121.730469 238.402344 123.9375 L 238.402344 186.835938"/><path fill="#1F90A3" d="M 250.964844 169.109375 C 250.964844 171.160156 249.300781 172.824219 247.25 172.824219 C 245.203125 172.824219 243.542969 171.160156 243.542969 169.109375 L 243.542969 141.660156 C 243.542969 139.609375 245.203125 137.945312 247.25 137.945312 C 249.300781 137.945312 250.964844 139.609375 250.964844 141.660156 L 250.964844 169.109375"/><path fill="#1F90A3" d="M 262.09375 164.539062 C 262.09375 166.273438 260.6875 167.679688 258.953125 167.679688 C 257.21875 167.679688 255.8125 166.273438 255.8125 164.539062 L 255.8125 146.238281 C 255.8125 144.503906 257.21875 143.09375 258.953125 143.09375 C 260.6875 143.09375 262.09375 144.503906 262.09375 146.238281 L 262.09375 164.539062"/><path fill="#1F90A3" d="M 270.941406 160.390625 C 270.941406 161.8125 269.792969 162.960938 268.371094 162.960938 C 266.957031 162.960938 265.800781 161.8125 265.800781 160.390625 L 265.800781 150.386719 C 265.800781 148.960938 266.957031 147.8125 268.371094 147.8125 C 269.792969 147.8125 270.941406 148.960938 270.941406 150.386719 L 270.941406 160.390625"/><path fill="#1F90A3" d="M 164.476562 188.40625 C 164.476562 191.089844 166.652344 193.265625 169.332031 193.265625 L 169.613281 193.265625 C 172.292969 193.265625 174.464844 191.089844 174.464844 188.40625 L 174.464844 122.371094 C 174.464844 119.683594 172.292969 117.507812 169.613281 117.507812 L 169.332031 117.507812 C 166.652344 117.507812 164.476562 119.683594 164.476562 122.367188 L 164.476562 188.40625"/><path fill="#1F90A3" d="M 150.203125 175.6875 C 150.203125 178.210938 152.25 180.257812 154.773438 180.257812 C 157.292969 180.257812 159.339844 178.210938 159.339844 175.6875 L 159.339844 135.089844 C 159.339844 132.5625 157.292969 130.515625 154.773438 130.515625 C 152.25 130.515625 150.203125 132.5625 150.203125 135.089844 L 150.203125 175.6875"/><path fill="#1F90A3" d="M 136.792969 186.832031 C 136.792969 189.042969 138.582031 190.835938 140.789062 190.835938 C 142.996094 190.835938 144.785156 189.042969 144.785156 186.832031 L 144.785156 123.9375 C 144.785156 121.730469 142.996094 119.9375 140.789062 119.9375 C 138.582031 119.9375 136.792969 121.730469 136.792969 123.9375 L 136.792969 186.835938"/><path fill="#1F90A3" d="M 124.234375 169.109375 C 124.234375 171.160156 125.894531 172.824219 127.941406 172.824219 C 129.992188 172.824219 131.652344 171.160156 131.652344 169.109375 L 131.652344 141.660156 C 131.652344 139.609375 129.992188 137.945312 127.941406 137.945312 C 125.894531 137.945312 124.234375 139.609375 124.234375 141.660156 L 124.234375 169.109375"/><path fill="#1F90A3" d="M 113.101562 164.539062 C 113.101562 166.273438 114.507812 167.679688 116.242188 167.679688 C 117.976562 167.679688 119.382812 166.273438 119.382812 164.539062 L 119.382812 146.238281 C 119.382812 144.503906 117.976562 143.09375 116.242188 143.09375 C 114.507812 143.09375 113.101562 144.503906 113.101562 146.238281 L 113.101562 164.539062"/><path fill="#1F90A3" d="M 104.253906 160.390625 C 104.253906 161.8125 105.402344 162.960938 106.820312 162.960938 C 108.242188 162.960938 109.390625 161.8125 109.390625 160.390625 L 109.390625 150.386719 C 109.390625 148.960938 108.242188 147.8125 106.820312 147.8125 C 105.402344 147.8125 104.253906 148.960938 104.253906 150.386719 L 104.253906 160.390625"/></svg>