<svg width="633" height="68" fill="none" xmlns="http://www.w3.org/2000/svg"><path d="m535.101 62.029 7.653-8.064H633V38H0v18.037l53-.032 2.891 2.794 8.649-2.794h5.77l42.345.005 21.172.002L144.414 61 155 56.014l10.405.01 95.095.019v-7.047h11.922v13.033H318.5L321.337 52l6.165 15.954 9.247-9.47 4.693-4.443h81.714l3.305-3.537 3.298 3.537H497l9.17-9.015 6.381.023 4.523-.023 5.105 17.003h12.922zM97.899 24.029l-7.653-8.064H0V0h633v18.037l-53-.032-2.891 2.794-8.649-2.794h-5.77l-42.345.005-21.172.002L488.586 23 478 18.015l-10.405.009-95.095.019v-7.047h-11.922v13.033H314.5L311.663 14l-6.165 15.954-9.247-9.47-4.693-4.443h-81.714l-3.305-3.537-3.298 3.537H136l-9.17-9.015-6.381.023-4.523-.023-5.105 17.003H97.899z" fill="#F9EB06"/></svg>