<svg width="917" height="330" fill="none" xmlns="http://www.w3.org/2000/svg"><path fill="#F9EB06" d="M0 101.64h187v10.56H0zM380 46.2h311v10.56H380zM213 16.5h233v5.28H213zM81 0h241v5.28H81zM177 6.6h145v5.28H177zM459 60.06h311v5.28H459zM553 37.62h217v5.28H553zM754 30.36h163v3.96H754zM29 267.3h269v10.56H29zM641 319.44h269V330H641zM634 305.58h160v10.56H634zM0 95.7h187V99H0zM160 256.74h187v3.3H160zM227 285.12h142v3.3H227zM459 292.38h142v3.3H459zM754 244.2h142v3.3H754zM691 95.7h84V99h-84zM734 172.92h60v6.6h-60zM298 237.6h60v6.6h-60z"/></svg>