<svg version="1.1" id="Layer_1" xmlns="http://www.w3.org/2000/svg" x="0" y="0" width="800" height="800" style="enable-background:new 0 0 800 800" xml:space="preserve"><style>.st2{fill:#fff}.st3{fill:none}.st5{fill:#064b62}.st6{fill:#075567}.st11{fill:#454c53}</style><ellipse cx="407.7" cy="681.1" rx="284.7" ry="19" style="opacity:.27;fill:#75b5ad"/><ellipse cx="405.6" cy="336.8" rx="255.1" ry="253.6" style="opacity:.51;fill:none;stroke:#fff;stroke-width:2.0741;stroke-miterlimit:10"/><path d="M385.1 95.5c-127.1 9.4-229.9 127-220 247.5 5.3-59.4 29.6-117.5 68.8-162.2 39.2-44.7 93.3-72.5 151.2-85.3z" style="opacity:.39;fill:#fff"/><ellipse cx="405.6" cy="336.8" rx="255.1" ry="253.6" style="opacity:.2;fill:#fff"/><g><path class="st5" d="M196.6 624.1c2.3-3.2 5-6.1 7.6-9.1 10.2-11.8 17.5-26 21.3-41.1l362 .4c1 2.5 2.1 4.9 3.1 7.4 1.5 3.6 3 7.2 4.7 10.7 5 10.5 11.7 20.3 19.5 28.9l-418.2 2.8z"/><path class="st6" d="M612.3 685.2H201.5c-6.1 0-11-4.9-11-11v-47.1c0-6 4.9-11 11-11h410.9c6 0 11 5 11 11v47.1c-.1 6.1-5 11-11.1 11z"/><path class="st5" d="M570.3 532.5c-2.4 13.2 2.6 21.8 10.9 32.4l-347.2-.6c1.1.1 2-1 2.5-1.9 5.5-9.8 11.1-16.2 9.1-27.3 0 0 164.5 21.4 324.7-2.6z"/><path class="st6" d="M589.5 580.7H224.3c-5.3 0-9.6-4.3-9.6-9.6v-.7c0-5.3 4.3-9.6 9.6-9.6h365.1c5.3 0 9.6 4.3 9.6 9.6v.7c.1 5.3-4.2 9.6-9.5 9.6z"/></g></svg>