<svg xmlns="http://www.w3.org/2000/svg" width="800" height="800" style="enable-background:new 0 0 800 800" xml:space="preserve"><style>.st1{fill:#fff}.st2{fill:none}.st3{display:inline}.st6{fill:#064b62}.st7{fill:#075567}.st8{display:none}.st12{fill:#454c53}</style><g id="Layer_1"><path class="st12" d="M410.8 417.4h33.8V508h-33.8z"/><path class="st1" d="M426 445h3v13h-3zM432 445h3v13h-3zM438 445h3v13h-3zM419 430h4v12h-4zM426 430h3v12h-3zM432 430h3v12h-3zM419 460h4v14h-4zM432 460h3v14h-3zM438 460h3v14h-3zM419 476h4v14h-4zM426 476h3v14h-3zM438 476h3v14h-3z"/><g><path class="st12" d="M367.8 352.1h37.7V508h-37.7z"/><path class="st1" d="M372 372h5v9h-5zM380 372h5v9h-5zM380 386h5v6h-5zM372 397h5v8h-5zM380 397h5v8h-5zM372 408h5v9h-5zM380 408h5v9h-5zM380 419h5v8h-5zM372 430h5v10h-5zM380 430h5v10h-5zM372 444h5v8h-5zM380 444h5v8h-5zM372 456h5v8h-5zM380 456h5v8h-5zM380 466h5v10h-5zM372 479h5v10h-5zM380 479h5v10h-5zM380 492h5v7h-5zM397 372h4v9h-4zM387 386h6v6h-6zM397 386h4v6h-4zM397 397h4v8h-4zM387 408h6v9h-6zM397 408h4v9h-4zM387 419h6v8h-6zM387 430h6v10h-6zM397 430h4v10h-4zM397 444h4v8h-4zM387 456h6v8h-6zM397 456h4v8h-4zM387 466h6v10h-6zM397 466h4v10h-4zM397 479h4v10h-4zM387 492h6v7h-6zM397 492h4v7h-4z"/></g><g><path class="st12" d="M490 428h28v80h-28z"/><path class="st1" d="M492 433h23v3h-23zM492 440h23v4h-23zM492 449h23v2h-23zM492 455h23v4h-23zM492 463h23v3h-23zM492 472h23v2h-23zM492 478h23v2h-23zM492 487h23v2h-23z"/></g><g><path class="st2" d="m290.2 474.7 3.5-3.5 1.6 1.6 21.3-20.8c-.2-.5-.4-1.1-.4-1.1H286v2h-4.7c.1 1 .2 2.3.4 3.4l4.8-1.2 1.8 6.7-4.8 1.3c.4 1 .8 2 1.3 3l4.3-2.4 3.5 6-4.3 2.5c.5.8 1.2 1.7 1.9 2.5zM298.6 423.2l-2 2 21.2 21.3c.4-.3 1.2-.5 1.2-.6V416h-2v-4.8c-1 .1-2.2.2-3.3.4l1.2 4.4-6.7 1.8-1.2-4.4c-1 .4-2.1.8-3 1.2l2.3 3.9-6 3.4-2.3-3.9c-.9.6-1.8 1.3-2.6 2l3.2 3.2zM281.8 443.3c-.2 1.1-.4 1.7-.5 3.7h4.7v2h30.4c.1 0 .3-.9.5-1.2l-21.5-21.4-1.8 1.7-3.2-3.2c-.7.8-1.4 1.7-2 2.6l3.9 2.3-3.5 6-4-2.3c-.5 1-.9 2-1.3 3l4.4 1.2-1.8 6.8-4.3-1.2zM317 488.6V484h2v-30.1c0-.1-1.2-.5-1.7-1l-21.1 21 2.3 2.2-3.5 3.5c.8.7 1.7 1.4 2.6 2l2.5-4.2 6 3.4-2.5 4.3c1 .5 2 .9 3 1.3l1.3-4.7 6.7 1.8-1.4 4.7c1.3.1 2.8.3 3.8.4zM322.1 453.2c-.5.3-.1.6-2.1.7V484h4v4.5c1-.1 2.1-.3 3.2-.4l-1.2-4.7 6.7-1.8 1.3 4.6c1-.4 2.1-.8 3-1.3l-2.4-4.2 6-3.4 2.4 4.1c.9-.6 1.8-1.3 2.6-2l-3.4-3.4 1.5-1.8-21.6-21zM324 411.3v4.7h-4v29.9c2 .1 1.2.2 1.5.3l21.9-21.5-1.5-1.6 3.2-3.1c-.8-.7-1.7-1.4-2.6-2l-2.2 3.9-6-3.4 2.2-3.8c-1-.5-2-.9-3-1.3l-1.2 4.3-6.7-1.8 1.1-4.3c-.8-.1-1.7-.3-2.7-.3zM355 451h-30.7s-.3 1-.6 1.5l21.3 20.9 2-2.1 3.4 3.3c.7-.8 1.4-1.7 2-2.6l-4.2-2.4 3.5-6 4.2 2.4c.5-1 .9-2 1.3-3l-4.7-1.3 1.8-6.6 4.7 1.1c.2-1 .3-2.3.4-3.3H355V451zM350.1 424.9 347 428l-2.2-2.2-21.5 21.5c.4.4.6 1.6.8 1.6H355v-2h4.2c-.1-2-.3-2.5-.4-3.6l-4.3 1-1.8-6.7 4.3-1.2c-.4-1-.8-2.1-1.3-3l-3.9 2.2-3.5-6 3.9-2.2c-.7-.8-1.4-1.7-2.1-2.5z"/><path class="st12" d="M325 492.2c22-2.6 37.9-20.6 37.9-42.3 0-23.5-19.1-42.7-42.8-42.7-23.7 0-42.8 19.1-42.8 42.7 0 21.7 15.7 39.7 37.7 42.3v6.8h-27v9h64v-9h-27v-6.8zm-17-10.6-1.3 4.7c-1-.4-2-.8-3-1.3l2.5-4.3-6-3.4-2.5 4.2c-.9-.6-1.8-1.3-2.6-2l3.5-3.5-2.2-2.2 20.9-21c.5.5 1.7.8 1.7 1V484h-2v4.6c-1-.1-2.5-.3-3.7-.5l1.3-4.7-6.6-1.8zm-19-17.9-4.3 2.4c-.5-1-.9-2-1.3-3l4.8-1.3-1.8-6.6-4.8 1.2c-.2-1.1-.3-2.4-.4-3.4h4.7v-2h30.2s.2.6.4 1.1l-21.3 21-1.6-1.7-3.5 3.4c-.7-.8-1.4-1.7-2-2.6l4.3-2.5-3.4-6zm-5.4-27.3c.4-1 .8-2 1.3-3l4 2.3 3.5-6-3.9-2.3c.6-.9 1.3-1.8 2-2.6l3.2 3.2 1.8-1.8 21.5 21.5c-.2.3-.4 1.2-.5 1.2H286v-2h-4.7c.1-2 .3-2.6.5-3.7l4.4 1 1.8-6.7-4.4-1.1zm16.7-14.4 6-3.4-2.3-3.9c1-.5 2-.9 3.1-1.2l1.2 4.4 6.7-1.8-1.3-4.4c1.1-.2 2.3-.3 3.3-.4v4.8h2V446c0 .1-.8.3-1.2.6l-21.4-21.3 2.1-2-3.2-3.2c.8-.7 1.7-1.4 2.6-2l2.4 3.9zm32.1-4.3 1.2-4.3c1 .4 2.1.8 3 1.3l-2.2 3.8 6 3.4 2.2-3.9c.9.6 1.8 1.3 2.6 2l-3.2 3.1 1.6 1.6-22.2 21.5c-.3-.2.5-.3-1.5-.3V416h4v-4.7c1 .1 1.9.2 2.8.4l-1.1 4.3 6.8 1.7zm19.3 18 3.9-2.2c.5 1 .9 2 1.3 3l-4.3 1.2 1.8 6.6 4.3-.8c.2 1.1.3 1.6.4 3.6H355v2h-30.9c-.2 0-.5-1.2-.8-1.6l21.5-21.5 2.2 2.1 3.2-3.2c.7.8 1.4 1.7 2 2.6l-3.9 2.2 3.4 6zm-6.2 43.8c-.8.7-1.7 1.4-2.6 2l-2.4-4.1-6 3.4 2.4 4.2c-1 .5-2 .9-3 1.3l-1.2-4.6-6.7 1.8 1.2 4.7c-1 .2-2.2.3-3.2.4V484h-4v-30.1c2-.1 1.6-.3 2.1-.7l21.5 21.1-1.7 1.8 3.6 3.4zM362 453h-2.8c-.1 1-.2 2.2-.4 3.3l-4.7-1.2-1.8 6.7 4.7 1.3c-.4 1-.8 2-1.3 3l-4.2-2.4-3.5 6 4.2 2.4c-.6.9-1.3 1.8-2 2.6l-3.4-3.4-2 2-21.3-20.7c.4-.6.6-1.5.6-1.5H355v2h7v-6.7 6.6z"/></g><g><path class="st12" d="M258 478h25v30h-25z"/><path class="st1" d="M261 483h3v7h-3zM272 483h2v7h-2zM277 483h3v7h-3zM261 492h3v7h-3zM266 492h3v7h-3zM277 492h3v7h-3z"/></g><g><path class="st12" d="M251 415v-7h-6v7h-19v93h27v-93h-2zm-16 83h-7v-7h7v7zm0-10h-7v-8h7v8zm0-11h-7v-6h7v6zm0-9h-7v-7h7v7zm0-11h-7v-7h7v7zm0-20h-7v-7h7v7zm0-11h-7v-6h7v6zm8 72h-6v-7h6v7zm0-10h-6v-8h6v8zm0-20h-6v-7h6v7zm0-11h-6v-7h6v7zm0-10h-6v-8h6v8zm0-10h-6v-7h6v7zm0-11h-6v-6h6v6zm8 62h-6v-8h6v8zm0-11h-6v-6h6v6zm0-9h-6v-7h6v7zm0-21h-6v-8h6v8zm0-10h-6v-7h6v7z"/><path class="st1" d="M228 420h7v6h-7zM237 420h6v6h-6zM228 430h7v7h-7zM245 430h6v7h-6zM237 430h6v7h-6zM245 439h6v8h-6zM237 439h6v8h-6zM228 450h7v7h-7zM237 450h6v7h-6zM228 461h7v7h-7zM245 461h6v7h-6zM237 461h6v7h-6zM228 471h7v6h-7zM245 471h6v6h-6zM228 480h7v8h-7zM245 480h6v8h-6zM237 480h6v8h-6zM228 491h7v7h-7zM237 491h6v7h-6z"/></g><g><path class="st12" d="M480 388v-34h-4v-32h-7v-13h-4v13h-8v32h-4v34h-4v120h37V388h-6zm-12 41v12h-3v-12h3zm6 12h-2v-12h2v12zm0 5v13h-2v-13h2zm-9 0h3v13h-3v-13zm-3-5h-3v-12h3v12zm-3 5h3v13h-3v-13zm-6 38v-16h2v16h-2zm6 0v-16h3v16h-3zm6 0v-16h3v16h-3zm7 0v-16h2v16h-2zm5 0v-16h3v16h-3z"/><path class="st1" d="M455 468h-2v16h2zM459 468h3v16h-3zM465 468h3v16h-3zM472 468h2v16h-2zM477 468h3v16h-3zM459 446h3v13h-3zM465 446h3v13h-3zM472 446h2v13h-2zM459 429h3v12h-3zM465 429h3v12h-3zM472 429h2v12h-2zM459 413h3v12h-3zM465 413h3v12h-3zM472 413h2v12h-2zM459 396h3v13h-3zM465 396h3v13h-3zM472 396h2v13h-2zM460 375h4v12h-4zM471 375h3v12h-3zM460 359h4v13h-4zM471 359h3v13h-3zM466 339h2v12h-2zM461 339h3v12h-3zM466 325h2v11h-2zM471 339h2v12h-2z"/></g><g><path class="st12" d="M559.5 508v-60.3c0-26.6-35.6-44.2-35.6-44.2V508h35.6z"/><path class="st1" d="M529 469h4v15h-4zM536 469h4v15h-4zM550 469h3v15h-3zM529 450h4v13h-4zM543 450h4v13h-4zM550 450h3v13h-3zM529 428h4v15h-4zM536 428h4v15h-4z"/></g><path class="st12" d="m584.2 507-5.5-44.3 2.3-32.1.3-4-.3 4c2.6-1.1 4.3-3.1 4.3-5.3 0-3.2-2.3-5.9-8.3-6.3v-22h-3v21.9c-4 .3-8.2 3-8.2 6.3 0 2.2 1.9 4.2 4.6 5.3l2.4 32-5.5 44.5-1.9 1h20.8l-2-1zM565.1 533.3c9.7-7.8 18.7-16.2 27.2-25.3H219c9.2 10 19.3 19.2 30 27.6 24.1 2.8 171.1 18.5 316.1-2.3z"/><path d="M660.8 336.8c0 140.1-114.2 253.6-255.1 253.6-140.9 0-255.1-113.6-255.1-253.6" style="opacity:.2;fill:none;stroke:#fff;stroke-width:2;stroke-miterlimit:10"/></g></svg>